<svg xmlns="http://www.w3.org/2000/svg" width="1536" height="1024" viewBox="0 0 1536 1024" role="img" aria-labelledby="title description"><title id="title">Инструктажи: учёт без пробелов</title><desc id="description">Оригинальная редакционная схема OT Center. Как выбрать вид инструктажа и оформить запись.</desc><rect x="0" y="0" width="1536" height="1024" rx="0" fill="#f5f5f0" stroke="none" stroke-width="3"/><rect x="0" y="0" width="26" height="1024" rx="0" fill="#236a6b" stroke="none" stroke-width="3"/><text x="103" y="146" fill="#10262a" font-family="Arial, sans-serif" font-size="45" font-weight="700" text-anchor="start">OT Center</text><text x="1427" y="144" fill="#526b6b" font-family="Arial, sans-serif" font-size="27" font-weight="400" text-anchor="end">Практика безопасной работы</text><path d="M104 191L1427 191" fill="none" stroke="#baccc4" stroke-width="2" stroke-linecap="round"/><text x="103" y="382" fill="#10262a" font-family="Arial, sans-serif" font-size="53" font-weight="700" text-anchor="start">Инструктажи:</text><text x="103" y="455" fill="#10262a" font-family="Arial, sans-serif" font-size="53" font-weight="700" text-anchor="start">учёт без пробелов</text><text x="107" y="550" fill="#526b6b" font-family="Arial, sans-serif" font-size="30" font-weight="400" text-anchor="start">Как выбрать вид инструктажа</text><text x="107" y="598" fill="#526b6b" font-family="Arial, sans-serif" font-size="30" font-weight="400" text-anchor="start">и оформить запись</text><rect x="107" y="649" width="91" height="6" rx="0" fill="#236a6b" stroke="none" stroke-width="3"/><text x="107" y="723" fill="#236a6b" font-family="Arial, sans-serif" font-size="28" font-weight="700" text-anchor="start">Вид</text><text x="107" y="768" fill="#236a6b" font-family="Arial, sans-serif" font-size="28" font-weight="400" text-anchor="start">проведение • запись</text><rect x="830" y="274" width="553" height="501" rx="12" fill="#ffffff" stroke="#baccc4" stroke-width="3"/><rect x="830" y="274" width="553" height="109" rx="12" fill="#10262a" stroke="none" stroke-width="3"/><text x="877" y="347" fill="#ffffff" font-family="Arial, sans-serif" font-size="35" font-weight="700" text-anchor="start">Журнал инструктажей</text><text x="863" y="435" fill="#526b6b" font-family="Arial, sans-serif" font-size="26" font-weight="700" text-anchor="start">Дата</text><text x="1002" y="435" fill="#526b6b" font-family="Arial, sans-serif" font-size="26" font-weight="700" text-anchor="start">Сотрудник</text><text x="1227" y="435" fill="#526b6b" font-family="Arial, sans-serif" font-size="26" font-weight="700" text-anchor="start">Вид</text><path d="M855 464L1357 464" fill="none" stroke="#baccc4" stroke-width="4" stroke-linecap="round"/><path d="M855 531L1357 531" fill="none" stroke="#baccc4" stroke-width="4" stroke-linecap="round"/><path d="M855 598L1357 598" fill="none" stroke="#baccc4" stroke-width="4" stroke-linecap="round"/><path d="M855 665L1357 665" fill="none" stroke="#baccc4" stroke-width="4" stroke-linecap="round"/><path d="M855 732L1357 732" fill="none" stroke="#baccc4" stroke-width="4" stroke-linecap="round"/><path d="M981 405L981 733" fill="none" stroke="#baccc4" stroke-width="4" stroke-linecap="round"/><path d="M1211 405L1211 733" fill="none" stroke="#baccc4" stroke-width="4" stroke-linecap="round"/><path d="M868 501L952 501" fill="none" stroke="#baccc4" stroke-width="7" stroke-linecap="round"/><path d="M1004 501L1175 501" fill="none" stroke="#baccc4" stroke-width="7" stroke-linecap="round"/><path d="M1252 497l11.2 11.2l22.4 -26.599999999999998" fill="none" stroke="#236a6b" stroke-width="4.8999999999999995" stroke-linecap="round" stroke-linejoin="round"/><path d="M868 568L952 568" fill="none" stroke="#baccc4" stroke-width="7" stroke-linecap="round"/><path d="M1004 568L1166 568" fill="none" stroke="#baccc4" stroke-width="7" stroke-linecap="round"/><path d="M1252 564l11.2 11.2l22.4 -26.599999999999998" fill="none" stroke="#236a6b" stroke-width="4.8999999999999995" stroke-linecap="round" stroke-linejoin="round"/><path d="M868 635L952 635" fill="none" stroke="#baccc4" stroke-width="7" stroke-linecap="round"/><path d="M1004 635L1157 635" fill="none" stroke="#baccc4" stroke-width="7" stroke-linecap="round"/><path d="M1252 631l11.2 11.2l22.4 -26.599999999999998" fill="none" stroke="#236a6b" stroke-width="4.8999999999999995" stroke-linecap="round" stroke-linejoin="round"/><path d="M868 702L952 702" fill="none" stroke="#baccc4" stroke-width="7" stroke-linecap="round"/><path d="M1004 702L1148 702" fill="none" stroke="#baccc4" stroke-width="7" stroke-linecap="round"/><path d="M1252 698l11.2 11.2l22.4 -26.599999999999998" fill="none" stroke="#236a6b" stroke-width="4.8999999999999995" stroke-linecap="round" stroke-linejoin="round"/><path d="M104 884L1427 884" fill="none" stroke="#baccc4" stroke-width="2" stroke-linecap="round"/><text x="104" y="941" fill="#10262a" font-family="Arial, sans-serif" font-size="29" font-weight="700" text-anchor="start">Казахстан</text><text x="1427" y="941" fill="#526b6b" font-family="Arial, sans-serif" font-size="28" font-weight="400" text-anchor="end">otcenter.kz</text></svg>